# xmcd
#
# Track frame offsets: 
#        150
#        9525
#        21365
#        36453
#        47288
#        67115
#        80100
#        92280
#        108763
#        126713
#        136025
#        146950
#
# Disc length: 2197 seconds
#
# Revision: 0
# Processed by: cddbd v1.4PL0 Copyright (c) Steve Scherf et al.
# Submitted via: ExactAudioCopy v0.90b4
#
DISCID=a608930c
DTITLE=Various Artist - Way Out West
DYEAR=2003
DGENRE=Country
TTITLE0=Way out West
TTITLE1=FinePpair of Chaps
TTITLE2=You Betcha
TTITLE3=Bareel Racin' Annie
TTITLE4=Gidee-Up Galileo, Buffalo
TTITLE5=Ride' em Cowboy
TTITLE6=My Little Doggie
TTITLE7=Sasparilla Saloon
TTITLE8=Home on the Range (parody)
TTITLE9=Hey,Howdy Hey
TTITLE10=Way out West (reprise)
TTITLE11=Ti TI Yippi Yi O
EXTD=
EXTT0=
EXTT1=
EXTT2=
EXTT3=
EXTT4=
EXTT5=
EXTT6=
EXTT7=
EXTT8=
EXTT9=
EXTT10=
EXTT11=
PLAYORDER=
